<?xml version="1.0" encoding="UTF-8" standalone="no"?>
<svg
   xmlns:dc="http://purl.org/dc/elements/1.1/"
   xmlns:cc="http://creativecommons.org/ns#"
   xmlns:rdf="http://www.w3.org/1999/02/22-rdf-syntax-ns#"
   xmlns:svg="http://www.w3.org/2000/svg"
   xmlns="http://www.w3.org/2000/svg"
   xmlns:sodipodi="http://sodipodi.sourceforge.net/DTD/sodipodi-0.dtd"
   xmlns:inkscape="http://www.inkscape.org/namespaces/inkscape"
   viewBox="0 0 90.999675 91.000442"
   version="1.1"
   width="91pt"
   height="91pt"
   id="svg2"
   sodipodi:docname="arte.svg"
   inkscape:version="0.92.3 (2405546, 2018-03-11)">
  <sodipodi:namedview
     pagecolor="#ffffff"
     bordercolor="#666666"
     borderopacity="1"
     objecttolerance="10"
     gridtolerance="10"
     guidetolerance="10"
     inkscape:pageopacity="0"
     inkscape:pageshadow="2"
     inkscape:window-width="1920"
     inkscape:window-height="1021"
     id="namedview7"
     showgrid="false"
     inkscape:pagecheckerboard="false"
     inkscape:zoom="1.9544319"
     inkscape:cx="46.045252"
     inkscape:cy="60.3756"
     inkscape:window-x="0"
     inkscape:window-y="0"
     inkscape:window-maximized="1"
     inkscape:current-layer="svg2" />
  <defs
     id="defs11" />
  <metadata
     id="metadata18">
    <rdf:RDF>
      <cc:Work
         rdf:about="">
        <dc:format>image/svg+xml</dc:format>
        <dc:type
           rdf:resource="http://purl.org/dc/dcmitype/StillImage" />
        <dc:title></dc:title>
      </cc:Work>
    </rdf:RDF>
  </metadata>
  <g
     transform="translate(-0.54798045,-248.9855)"
     id="g3850">
    <path
       style="fill:#fa481c"
       d="m 13.89,300.75 c -1.5,-13.28 -0.87,-27.5 5.55,-39.5 3.26,-6.55 9.87,-11.99 17.51,-11.6 15.09,0.2 30.17,-0.33 45.26,-0.21 0.03,11.22 0.01,22.43 0.01,33.64 -6.33,0.02 -12.67,0.04 -19.01,-0.02 1.39,5.19 2.81,10.42 5.07,15.3 1.54,2.88 4.11,6.1 7.77,5.67 2.42,-0.56 4.24,-2.35 6.14,-3.82 0.09,10.49 0,20.97 0.05,31.45 0.46,3.9 -3.19,6.66 -6.46,7.84 -5.03,0.95 -10.79,0.72 -14.95,-2.63 -7,-5.18 -8.98,-14.28 -10.63,-22.32 -0.49,-5.86 -1.87,-11.59 -2.58,-17.42 -0.46,-3.84 -1.21,-7.66 -2.46,-11.33 -1.06,-2.67 -4.57,-3.34 -6.89,-1.97 -2.16,1.09 -2.96,3.65 -3.41,5.86 -0.61,4.08 -0.45,8.65 2,12.14 1.43,1.93 3.93,2.36 6.12,2.82 0.03,10.75 0.02,21.5 0.01,32.24 -7.55,-1.03 -15.01,-4.45 -19.83,-10.5 -6.06,-7.12 -8.08,-16.62 -9.27,-25.64 z"
       id="path8"
       inkscape:connector-curvature="0" />
  </g>
</svg>
